<?xml version="1.0" encoding="UTF-8"?><svg id="Layer_2" xmlns="http://www.w3.org/2000/svg" viewBox="0 0 259.46 56.27"><g id="Layer_1-2"><path d="M62.35,55.52l5.98-34.12,15.7-.08c10.52,2.42,7.07,16.24-1.54,18.65,1.52,1.09,2.51,1.84,3.13,3.69,1.12,3.36.97,7.27,2.03,10.66l.84-.84,20.74-31.95,5.62-.23,10.08,34.21h-7.43l-2.07-6.91-16.59.02-4.52,6.85-13.36.05c-1.61-6.38.1-15.39-9.76-13.55l-2.38,13.54h-6.47ZM72.18,36.86h5.64c2.26,0,5.54-2.9,5.85-5.17.89-6.45-5.39-5.73-9.81-5.6l-1.68,10.77ZM113.91,43.32l-3.36-12.44-8.03,11.97.24.47h11.15Z"/><path d="M46.76,0v46.91h4.8v9.33h-14.15v-3.35c-1.77.85-3.49,1.82-5.39,2.4-4.19,1.26-9.05,1.43-13.07-.36v-10.17c6.28,4.66,15.56,1.7,17.81-5.8.19-.62.65-2.41.65-2.94V9.33h-4.8V0h14.15Z"/><polygon points="126.37 55.52 132.39 21.33 140.01 21.34 150.59 43.32 154.43 21.3 160.91 21.3 154.89 55.5 148.31 55.29 136.93 31.59 132.85 55.52 126.37 55.52"/><path d="M159.47,55.52l6.35-34.24c5.21.36,10.94-.43,16.08,0,10.47.89,13.16,12.67,9.89,21.13-2.19,5.67-9.41,13.1-15.89,13.1h-16.43ZM167.14,50.02h6.83c8.64,0,15.67-12.2,11.1-19.7-2.92-4.79-9.02-4.1-13.88-3.89l-4.06,23.59Z"/><path d="M14.15,14.6v3.59c1.51-.63,2.89-1.59,4.43-2.16,3.43-1.26,7.37-1.49,10.97-.88,1.01.17,2.3.33,3.07,1.01v10.17c-5.21-3.87-12.44-2.63-16.27,2.55-1.01,1.37-2.2,4.26-2.2,5.94v17.83c-3.95-2.47-7.2-6.79-8.46-11.3-1.53-5.48-.73-11.31-.75-16.93,0-.28-.02-.31-.26-.49H0v-8.97l.36-.36h13.79Z"/><path d="M218.4,20.64c4.62-.58,10.12.16,13.24,3.89l-5.39,4.66c-2.6-3.12-8.57-3.88-11.01-.22-3.14,4.7,6.32,6.65,9.14,8.32,8.12,4.8,4.25,14.86-3.28,17.87-5.66,2.26-13.78,1.08-17.97-3.59l5.6-4.65c2.75,3.14,9.94,4.69,12.49.69,2.96-4.64-5.91-6.41-8.75-8-9.72-5.47-3.34-17.81,5.94-18.97Z"/><polygon points="259.46 21.3 258.5 27.04 248.78 27.27 243.88 55.52 237.16 55.52 242.2 27.04 232.61 27.04 233.57 21.3 259.46 21.3"/><polygon points="205.75 21.3 199.75 55.52 193.04 55.52 199.03 21.3 205.75 21.3"/></g></svg>